<svg style="display: none">
  <symbol id="socials" xmlns="http://www.w3.org/2000/svg" xmlns:xlink="http://www.w3.org/1999/xlink" viewBox="0 0 35 25" width="50" height="50">
    <path d="M22.3,12.5c3.5,0,6.4-2.8,6.4-6.3c0-3.4-2.9-6.2-6.4-6.2s-6.4,2.8-6.4,6.2C15.9,9.7,18.8,12.5,22.3,12.5z M8,9.4V4.7H4.8
      v4.7H0v3.1h4.8v4.7H8v-4.7h4.8V9.4H8z M22.3,15.6c-4.3,0-12.7,2-12.7,6.2V25H35v-3.1C35,17.7,26.6,15.6,22.3,15.6z"/>
  </symbol>

  <symbol id="messanger" xmlns="http://www.w3.org/2000/svg" xmlns:xlink="http://www.w3.org/1999/xlink" viewBox="0 0 20 20">
    <path class="st0" d="M10.2,0C4.8,0,0.3,4.4,0.3,9.8c0,1.7,0.4,3.4,1.3,4.9L0,19.6c0,0.1,0,0.2,0.1,0.3C0.2,20,0.2,20,0.3,20
      c0,0,0.1,0,0.1,0l5.3-1.4c1.4,0.7,2.9,1.1,4.5,1.1c5.4,0,9.8-4.4,9.8-9.8C20,4.4,15.6,0,10.2,0L10.2,0z"/>
 	</symbol>

 	<symbol id="chatbot" xmlns="http://www.w3.org/2000/svg" xmlns:xlink="http://www.w3.org/1999/xlink" viewBox="0 0 68.9 68.9">
		<path class="st1" d="M52.1,29.7h-1.3v-1.9c0-3-2.5-5.4-5.5-5.4h-8.9V18c1.2-0.7,2-1.9,2-3.4c0-2.2-1.8-3.9-3.9-3.9
			c-2.2,0-3.9,1.8-3.9,3.9c0,1.5,0.8,2.7,2,3.4v4.5h-8.9c-3,0-5.4,2.4-5.4,5.4v1.9h-1.4c-1.7,0-3.1,1.4-3.1,3.1v6.6
			c0,1.7,1.4,3.1,3.1,3.1h1.4v1.9c0,3,2.4,5.4,5.4,5.4h2.5v2.9c0,1.7,1.4,3.1,3.1,3.1h10.5c1.7,0,3.1-1.4,3.1-3.1v-2.9h2.6
			c3,0,5.5-2.4,5.5-5.4v-1.9h1.3c1.7,0,3.1-1.4,3.1-3.1v-6.6C55.1,31.1,53.8,29.7,52.1,29.7L52.1,29.7z M22.5,31.8
			c0-2,1.6-3.6,3.6-3.6c2,0,3.6,1.6,3.6,3.6c0,2-1.6,3.6-3.6,3.6C24.1,35.4,22.5,33.8,22.5,31.8L22.5,31.8z M39.3,44.9h-9.8
			c-1.6,0-2.9-1.3-2.9-2.9c0-1.6,1.3-2.9,2.9-2.9h9.8c1.6,0,2.9,1.3,2.9,2.9C42.3,43.6,40.9,44.9,39.3,44.9L39.3,44.9z M42.8,35.4
			c-2,0-3.6-1.6-3.6-3.6c0-2,1.6-3.6,3.6-3.6c2,0,3.6,1.6,3.6,3.6C46.3,33.8,44.7,35.4,42.8,35.4L42.8,35.4z M42.8,35.4"/>
	</symbol>

	<symbol id="feedback" xmlns="http://www.w3.org/2000/svg" xmlns:xlink="http://www.w3.org/1999/xlink" viewBox="0 0 40 40">
		<path class="st0" d="M20,0C9,0,0,9,0,20c0,11,9,20,20,20s20-9,20-20C40,9,31,0,20,0z M12.5,13.7H24l-0.1-0.1
			c-0.6-0.6-0.6-1.5,0-2.1c0.6-0.6,1.5-0.6,2,0l2.7,2.7c0,0,0,0,0,0c0,0,0,0,0,0c0,0,0,0,0,0c0,0,0,0,0,0c0,0,0,0,0,0.1l0,0
			c0,0,0,0,0,0c0.1,0.1,0.2,0.3,0.3,0.4c0.1,0.2,0.1,0.4,0.1,0.6c0,0,0,0.1,0,0.1v0c0,0,0,0,0,0c0,0.1,0,0.2,0,0.3c0,0,0,0,0,0
			c-0.1,0.2-0.2,0.4-0.4,0.6c0,0,0,0,0,0l-2.7,2.7c-0.3,0.3-0.6,0.4-1,0.4c-0.4,0-0.7-0.2-1-0.4c-0.6-0.6-0.5-1.5,0-2.1l0.1-0.2
			H12.5c-0.8,0-1.4-0.7-1.4-1.5C11,14.3,11.7,13.7,12.5,13.7z M27.6,26.3H16l0.1,0.2c0.6,0.6,0.6,1.5,0,2.1c-0.3,0.3-0.7,0.4-1,0.4
			c-0.4,0-0.7-0.1-1-0.4l-2.7-2.7c0,0,0,0-0.1,0c-0.2-0.2-0.3-0.4-0.4-0.6c0,0,0,0,0,0c0,0,0,0,0,0c0-0.1-0.1-0.2-0.1-0.4v0
			c0-0.2,0.1-0.3,0.1-0.5c0.1-0.2,0.2-0.4,0.4-0.5c0,0,0,0,0,0l2.7-2.7c0.6-0.6,1.5-0.6,2,0c0.6,0.6,0.5,1.5,0,2.1L16,23.4h11.5
			c0.8,0,1.4,0.7,1.4,1.5C29,25.6,28.4,26.3,27.6,26.3z"/>
</symbol>

  
</svg>