<?xml version="1.0" standalone="no"?>
<!DOCTYPE svg PUBLIC "-//W3C//DTD SVG 20010904//EN"
 "http://www.w3.org/TR/2001/REC-SVG-20010904/DTD/svg10.dtd">
<svg version="1.0" xmlns="http://www.w3.org/2000/svg"
 width="1407.000000pt" height="1407.000000pt" viewBox="0 0 1407.000000 1407.000000"
 preserveAspectRatio="xMidYMid meet">
<metadata>
Created by potrace 1.11, written by Peter Selinger 2001-2013
</metadata>
<g transform="translate(0.000000,1407.000000) scale(0.100000,-0.100000)"
fill="#000000" stroke="none">
<path d="M13650 11580 c-75 -22 -149 -79 -197 -151 -21 -32 -62 -172 -78 -269
-3 -19 -31 -156 -61 -305 -30 -148 -56 -280 -59 -292 -2 -13 -6 -31 -9 -41 -3
-9 -7 -33 -10 -52 -12 -74 -96 -480 -150 -720 -19 -85 -37 -168 -40 -185 -3
-16 -17 -79 -30 -140 -14 -60 -27 -121 -30 -135 -5 -28 -45 -204 -53 -235 -2
-11 -9 -40 -14 -64 -5 -24 -34 -151 -65 -282 -30 -132 -57 -247 -59 -257 -2
-9 -15 -66 -30 -127 -14 -60 -28 -117 -30 -125 -2 -8 -6 -26 -9 -40 -3 -14
-53 -218 -112 -455 -58 -236 -107 -437 -109 -445 -16 -74 -171 -635 -244 -885
-23 -77 -43 -148 -46 -159 -9 -38 -139 -449 -211 -671 -73 -219 -189 -544
-220 -612 -8 -17 -14 -34 -14 -38 0 -3 -8 -25 -19 -48 -10 -23 -40 -91 -66
-152 -58 -134 -169 -363 -205 -425 -15 -25 -46 -79 -71 -120 -67 -115 -86
-140 -145 -202 -75 -77 -130 -102 -209 -95 -33 3 -74 12 -92 21 -165 85 -393
453 -675 1091 -43 99 -85 194 -92 210 -8 17 -62 152 -121 300 -59 149 -111
279 -116 290 -4 11 -45 119 -89 240 -45 121 -86 229 -90 240 -5 11 -20 52 -33
90 -14 39 -30 81 -35 95 -6 14 -29 75 -51 135 -100 277 -205 566 -228 630 -13
39 -29 79 -34 90 -5 11 -20 54 -35 95 -41 118 -239 649 -263 705 -5 11 -44
108 -86 215 -456 1146 -830 1824 -1209 2187 -310 297 -628 403 -956 318 -119
-31 -296 -125 -405 -216 -137 -114 -312 -324 -445 -534 -134 -211 -340 -665
-497 -1090 -14 -38 -29 -79 -34 -90 -20 -49 -185 -562 -254 -790 -221 -727
-500 -1390 -760 -1805 -413 -660 -806 -807 -1288 -481 -327 221 -708 682
-1099 1331 -70 116 -90 152 -171 300 -16 30 -33 60 -37 65 -4 6 -35 64 -70
130 -34 66 -77 147 -95 180 -74 136 -405 808 -405 820 0 2 -21 47 -46 102 -54
114 -237 532 -284 648 -18 44 -37 84 -41 90 -5 5 -9 15 -9 23 0 7 -9 33 -20
57 -22 48 -89 214 -175 435 -31 80 -67 172 -80 205 -22 57 -208 554 -330 885
-32 85 -67 164 -78 174 -11 11 -41 25 -66 32 -53 13 -103 -1 -134 -37 -37 -45
-36 -47 47 -379 6 -23 62 -234 90 -340 14 -52 53 -192 86 -310 33 -118 63
-224 65 -235 7 -31 141 -475 192 -635 26 -80 48 -150 49 -155 4 -24 209 -628
277 -820 169 -473 385 -1011 541 -1349 25 -54 46 -100 46 -103 0 -5 252 -509
278 -555 12 -21 38 -68 58 -105 147 -268 440 -717 548 -840 6 -7 16 -18 21
-25 106 -138 365 -396 496 -495 240 -183 492 -300 716 -332 71 -10 316 -8 368
4 202 43 397 127 562 242 141 97 353 296 473 443 25 30 47 57 50 60 37 35 267
374 355 525 104 177 239 439 324 628 81 181 85 189 150 350 71 171 176 445
221 573 112 318 162 461 165 474 2 8 22 67 45 130 23 63 51 142 62 175 47 136
252 634 295 719 68 130 137 228 207 293 127 118 262 147 390 84 59 -29 76 -41
136 -95 91 -82 169 -204 289 -451 175 -358 259 -546 399 -895 70 -175 241
-616 246 -635 2 -5 6 -17 9 -25 12 -30 158 -423 267 -720 206 -560 281 -764
347 -935 76 -199 288 -736 308 -780 7 -16 54 -127 105 -245 140 -330 374 -791
513 -1014 102 -165 232 -350 314 -449 68 -82 276 -277 345 -325 324 -222 650
-257 960 -101 134 67 229 139 357 269 365 371 705 1074 1030 2130 64 207 149
494 156 530 2 8 11 42 20 75 16 57 113 434 120 465 2 8 22 89 44 180 22 91 42
176 45 190 2 14 19 86 36 160 31 136 154 710 164 765 3 17 21 104 40 195 19
91 38 181 41 200 3 19 12 67 20 105 8 39 16 81 19 95 2 14 12 66 21 115 10 50
19 100 20 112 2 12 6 34 9 50 7 32 8 36 30 153 16 89 21 120 31 184 4 21 9 48
11 60 2 11 6 35 9 51 3 17 8 41 10 55 9 41 12 61 29 160 9 52 18 104 20 115 2
11 7 40 11 65 4 25 9 52 10 61 2 9 6 34 9 55 4 22 11 62 16 89 5 28 12 64 15
80 2 17 7 41 9 55 3 14 8 43 11 65 6 41 51 325 61 380 3 17 7 41 9 55 2 14 6
43 10 65 26 163 65 427 80 550 4 28 8 61 10 75 11 73 36 250 40 285 6 44 16
111 20 136 2 9 6 40 10 70 3 30 10 79 16 110 33 194 -119 380 -315 385 -39 1
-82 -1 -96 -6z"/>
</g>
</svg>
